# AST/ASF file generated using VICON BodyLanguage
# -----------------------------------------------
:version 1.10
:name VICON
:units
  mass 1.0
  length 0.45
  angle deg
:documentation
   .ast/.asf automatically generated from VICON data using
   VICON BodyBuilder and BodyLanguage model FoxedUp or BRILLIANT.MOD
:root
   order TX TY TZ RX RY RZ
   axis XYZ
   position 0 0 0  
   orientation 0 0 0 
:bonedata
  begin
     id 1 
     name lhipjoint
     direction 0.660183 -0.676772 0.325788 
     length 2.75133 
     axis 0 0 0  XYZ
  end
  begin
     id 2 
     name lfemur
     direction 0.34202 -0.939693 0  
     length 7.70317  
     axis 0 0 20  XYZ
    dof rx ry rz
    limits (-160.0 20.0)
           (-70.0 70.0)
           (-60.0 70.0)
  end
  begin
     id 3 
     name ltibia
     direction 0.342105 -0.939662 0   
     length 7.18701   
     axis 0 0 20   XYZ
    dof rx
    limits (-10.0 170.0)
  end
  begin
     id 4 
     name lfoot
     direction 0.14163 -0.389126 0.910232   
     length 2.41719   
     axis -90 7.62852e-016 20   XYZ
    dof rx rz
    limits (-45.0 90.0)
           (-70.0 20.0)
  end
  begin
     id 5 
     name ltoes
     direction 1.53533e-011 -4.21926e-011 1   
     length 1.18611   
     axis -90 7.62852e-016 20   XYZ
    dof rx
    limits (-90.0 20.0)
  end
  begin
     id 6 
     name rhipjoint
     direction -0.6658 -0.67229 0.323631   
     length 2.76968  
     axis 0 0 0  XYZ 
  end
  begin
     id 7 
     name rfemur
     direction -0.34202 -0.939693 0   
     length 7.92547   
     axis 0 0 -20   XYZ
    dof rx ry rz
    limits (-160.0 20.0)
           (-70.0 70.0)
           (-70.0 60.0)
  end
  begin
     id 8 
     name rtibia
     direction -0.342022 -0.939692 0   
     length 7.22641   
     axis 0 0 -20   XYZ
    dof rx
    limits (-10.0 170.0)
 end
 begin
     id 9 
     name rfoot
     direction -0.105675 -0.29034 0.951071   
     length 2.48149  
     axis -90 -7.62852e-016 -20   XYZ
    dof rx rz
    limits (-45.0 90.0)
           (-20.0 70.0)
  end
  begin
     id 10 
     name rtoes
     direction -1.5349e-011 -4.21859e-011 1   
     length 1.23343   
     axis -90 -7.62852e-016 -20   XYZ
    dof rx
    limits (-90.0 20.0)
  end
  begin
     id 11 
     name lowerback
     direction 0.0104173 0.993624 -0.112266   
     length 2.00527   
     axis 0 0 0   XYZ
    dof rx ry rz
    limits (-20.0 45.0)
           (-30.0 30.0)
           (-30.0 30.0)
  end
  begin
     id 12 
     name upperback
     direction 0.00733149 0.999856 -0.0152913   
     length 2.01385   
     axis 0 0 0   XYZ
    dof rx ry rz
    limits (-20.0 45.0)
           (-30.0 30.0)
           (-30.0 30.0)
  end
  begin
     id 13 
     name thorax
     direction 0.0026304 0.999318 0.036841   
     length 2.03734   
     axis 0 0 0   XYZ
    dof rx ry rz
    limits (-20.0 45.0)
           (-30.0 30.0)
           (-30.0 30.0)
  end
  begin
     id 14 
     name lowerneck
     direction 0.0293154 0.998757 0.0403082   
     length 1.65303   
     axis 0 0 0   XYZ
    dof rx ry rz
    limits (-20.0 45.0)
           (-30.0 30.0)
           (-30.0 30.0)
  end
  begin
     id 15 
     name upperneck
     direction -0.0376619 0.998184 -0.0470083   
     length 1.60926   
     axis 0 0 0   XYZ
    dof rx ry rz
    limits (-20.0 45.0)
           (-30.0 30.0)
           (-30.0 30.0)
  end
  begin
     id 16
     name head
     direction -0.0170133 0.999635 -0.0209778  
     length 1.73625  
     axis 0 0 0   XYZ
    dof rx ry rz
    limits (-20.0 45.0)
           (-30.0 30.0)
           (-30.0 30.0)
  end
  begin
     id 17 
     name lclavicle
     direction 0.919857 0.39181 -0.0186333  
     length 3.75313  
     axis 0 0 0   XYZ
    dof ry rz
    limits (-20.0 10.0)
           (0.0 20.0)
  end
  begin
     id 18 
     name lhumerus
     direction 1 -4.48988e-011 1.44029e-027   
     length 5.49313   
     axis 180 -30 -90   XYZ
    dof rx ry rz
    limits (-60.0 90.0)
           (-90.0 90.0)
           (-90.0 90.0)
  end
  begin
     id 19
     name lradius
     direction 1 -4.48924e-011 7.46281e-027   
     length 3.29037   
     axis 180 -30 -90   XYZ
    dof rx
    limits (-10.0 170.0)
  end
  begin
     id 20
     name lwrist
     direction 1 -4.48955e-011 2.19879e-026   
     length 1.64519   
     axis -1.34358e-014 90 90   XYZ
    dof ry
    limits (-180.0 0.0)
 end
  begin
     id 21 
     name lhand
     direction 1 -4.48978e-011 4.39747e-026   
     length 0.729656   
     axis -2.80598e-014 90 90   XYZ
    dof rx rz
    limits (-90.0 90.0)
           (-45.0 45.0)
  end
  begin
     id 22 
     name lfingers
     direction 1 -4.49071e-011 8.79411e-026   
     length 0.588268   
     axis -5.61193e-014 90 90   XYZ
    dof rx
    limits (0.0 90.0)
  end
  begin
     id 23
     name lthumb
     direction 0.707107 -6.34817e-011 0.707107   
     length 0.844638   
     axis -90 45 -9.86923e-015   XYZ
    dof rx rz
    limits (-45.0 45.0)
           (-45.0 45.0)
  end
  begin
     id 24 
     name rclavicle
     direction -0.919898 0.388279 0.0550233   
     length 3.7171  
     axis 0 0 0   XYZ 
    dof ry rz
    limits (-10.0 20.0)
           (-20.0 0.0)
  end
  begin
     id 25 
     name rhumerus
     direction -1 -4.48968e-011 9.98372e-028  
     length 5.23684   
     axis 180 30 90   XYZ
    dof rx ry rz
    limits (-90.0 60.0)
           (-90.0 90.0)
           (-90.0 90.0)
  end
  begin
     id 26 
     name rradius
     direction -1 -4.48956e-011 1.01023e-026   
     length 3.38251   
     axis 180 30 90   XYZ
    dof rx
    limits (-10.0 170.0)
  end
  begin
     id 27 
     name rwrist
     direction -1 -4.4892e-011 2.19886e-026   
     length 1.69126   
     axis -1.34358e-014 -90 -90   XYZ
    dof ry
    limits (-180.0 0.0)
  end
  begin
     id 28
     name rhand
     direction -1 -4.49024e-011 4.39727e-026   
     length 0.691454   
     axis -2.80598e-014 -90 -90   XYZ
    dof rx rz
    limits (-90.0 90.0)
           (-45.0 45.0)
  end
  begin
     id 29
     name rfingers
     direction -1 -4.49097e-011 8.79388e-026   
     length 0.557468   
     axis -5.61193e-014 -90 -90   XYZ
    dof rx
    limits (0.0 90.0)
  end
  begin
     id 30
     name rthumb
     direction -0.707107 -6.34938e-011 0.707107   
     length 0.800416   
     axis -90 -45 9.86923e-015   XYZ
    dof rx rz
    limits (-45.0 45.0)
           (-45.0 45.0)
  end
:hierarchy
  begin
    root lhipjoint rhipjoint lowerback
    lhipjoint lfemur
    lfemur ltibia
    ltibia lfoot
    lfoot ltoes
    rhipjoint rfemur
    rfemur rtibia
    rtibia rfoot
    rfoot rtoes
    lowerback upperback
    upperback thorax
    thorax lowerneck lclavicle rclavicle
    lowerneck upperneck
    upperneck head
    lclavicle lhumerus
    lhumerus lradius
    lradius lwrist
    lwrist lhand lthumb
    lhand lfingers
    rclavicle rhumerus
    rhumerus rradius
    rradius rwrist
    rwrist rhand rthumb
    rhand rfingers
  end

#!OML:ASF H:\BabyWalks\Project 1\Capture day 1\Session 1\baby.ASF
:FULLY-SPECIFIED
:DEGREES
197
root -35.0252 17.5761 -2.83555 -36.1248 80.5668 -38.6583
lowerback 14.4702 -1.00445 1.80808
upperback 7.22801 -0.688562 2.17555
thorax -0.484879 -0.18557 1.34928
lowerneck -4.74426 3.48268 0.257208
upperneck 10.8402 5.39624 -5.48405
head 4.64091 2.44379 -1.60747
rclavicle -1.43125e-014 2.70347e-014
rhumerus -43.9619 15.7614 -84.9547
rradius 41.091
rwrist -1.00074
rhand 0.305884 -18.3636
rfingers 7.12502
rthumb 25.8833 -46.6219
lclavicle -1.43125e-014 2.70347e-014
lhumerus -46.1258 -0.371665 78.9075
lradius 53.1249
lwrist 3.6785
lhand -1.06417 11.6561
lfingers 7.12502
lthumb 24.5707 40.0994
rfemur 6.02444 3.70436 31.0361
rtibia 11.474
rfoot -20.6328 -25.3563
rtoes 6.39542
lfemur -20.7168 5.08977 -13.2032
ltibia 38.3926
lfoot -17.8249 4.65225
ltoes -6.63025
198
root -35.0335 17.576 -2.83747 -36.0604 80.5777 -38.5778
lowerback 14.4761 -0.998027 1.80368
upperback 7.23233 -0.680307 2.17289
thorax -0.483542 -0.181357 1.34784
lowerneck -4.73969 3.48897 0.268653
upperneck 10.831 5.40186 -5.47613
head 4.63691 2.44755 -1.60652
rclavicle 2.08227e-014 -1.78906e-014
rhumerus -43.9491 15.7321 -84.9251
rradius 41.0648
rwrist -0.962161
rhand 0.215388 -18.3507
rfingers 7.12502
rthumb 25.7967 -46.6217
lclavicle 2.08227e-014 -1.78906e-014
lhumerus -46.1027 -0.302792 78.9073
lradius 53.1399
lwrist 3.68874
lhand -1.08501 11.6515
lfingers 7.12502
lthumb 24.5507 40.0975
rfemur 5.99586 3.65881 30.9997
rtibia 11.5032
rfoot -20.6358 -25.2898
rtoes 6.41296
lfemur -20.7065 5.02947 -13.2237
ltibia 38.3482
lfoot -17.8015 4.70005
ltoes -6.59212
199
root -35.0419 17.576 -2.83961 -35.9851 80.589 -38.4883
lowerback 14.4802 -0.99011 1.79969
upperback 7.23916 -0.67 2.17091
thorax -0.478601 -0.176046 1.34654
lowerneck -4.7311 3.49297 0.286334
upperneck 10.8146 5.40427 -5.47653
head 4.62987 2.44979 -1.60978
rclavicle 9.98893e-015 -6.75868e-015
rhumerus -43.9303 15.7052 -84.8945
rradius 41.0437
rwrist -0.932749
rhand 0.146275 -18.3352
rfingers 7.12502
rthumb 25.7305 -46.6157
lclavicle 9.98893e-015 -6.75868e-015
lhumerus -46.0794 -0.242631 78.9186
lradius 53.1519
lwrist 3.70166
lhand -1.10295 11.6553
lfingers 7.12502
lthumb 24.5335 40.1036
rfemur 5.96144 3.6064 30.9588
rtibia 11.5373
rfoot -20.6371 -25.2155
rtoes 6.4239
lfemur -20.6994 4.97246 -13.2472
ltibia 38.3057
lfoot -17.7788 4.74489
ltoes -6.54879
200
root -35.0504 17.5759 -2.84186 -35.9087 80.6016 -38.3997
lowerback 14.484 -0.980932 1.79739
upperback 7.24729 -0.657758 2.16943
thorax -0.472143 -0.169687 1.34453
lowerneck -4.72313 3.49478 0.303442
upperneck 10.7966 5.40383 -5.47804
head 4.62236 2.45057 -1.61347
rclavicle -2.07233e-014 3.37934e-015
rhumerus -43.9069 15.6756 -84.8629
rradius 41.0255
rwrist -0.909702
rhand 0.0956822 -18.3252
rfingers 7.12502
rthumb 25.682 -46.6128
lclavicle -2.07233e-014 3.37934e-015
lhumerus -46.0575 -0.197032 78.943
lradius 53.161
lwrist 3.71872
lhand -1.12008 11.6665
lfingers 7.12502
lthumb 24.5171 40.117
rfemur 5.9241 3.54814 30.9159
rtibia 11.5734
rfoot -20.6395 -25.1355
rtoes 6.42698
lfemur -20.6968 4.91812 -13.2719
ltibia 38.2671
lfoot -17.7577 4.78647
ltoes -6.50227
201
root -35.0587 17.5757 -2.84427 -35.8297 80.6139 -38.3105
lowerback 14.4884 -0.971077 1.79724
upperback 7.25597 -0.644277 2.16842
thorax -0.465491 -0.162638 1.34162
lowerneck -4.71165 3.49538 0.324582
upperneck 10.774 5.40164 -5.4847
head 4.6127 2.45056 -1.6198
rclavicle -1.02871e-014 -1.15295e-014
rhumerus -43.879 15.6465 -84.8317
rradius 41.0085
rwrist -0.892985
rhand 0.0624991 -18.3177
rfingers 7.12502
rthumb 25.6502 -46.6099
lclavicle -1.02871e-014 -1.15295e-014
lhumerus -46.0378 -0.165721 78.9799
lradius 53.1662
lwrist 3.73733
lhand -1.13228 11.6846
lfingers 7.12502
lthumb 24.5054 40.1367
rfemur 5.88361 3.48459 30.8711
rtibia 11.6118
rfoot -20.6409 -25.0496
rtoes 6.42688
lfemur -20.6982 4.8654 -13.2967
ltibia 38.2339
lfoot -17.739 4.82395
ltoes -6.44804
202
root -35.0669 17.5755 -2.84678 -35.7586 80.6256 -38.2302
lowerback 14.4951 -0.960939 1.80059
upperback 7.26423 -0.629854 2.16792
thorax -0.460542 -0.155034 1.33717
lowerneck -4.69375 3.49368 0.352017
upperneck 10.7469 5.39632 -5.49873
head 4.60056 2.44913 -1.63007
rclavicle 8.00108e-015 1.00386e-014
rhumerus -43.8532 15.6188 -84.8028
rradius 40.9981
rwrist -0.885513
rhand 0.0424031 -18.3175
rfingers 7.12502
rthumb 25.631 -46.6124
lclavicle 8.00108e-015 1.00386e-014
lhumerus -46.0229 -0.148875 79.0276
lradius 53.1656
lwrist 3.75417
lhand -1.13605 11.6936
lfingers 7.12502
lthumb 24.5018 40.1462
rfemur 5.8414 3.41912 30.8273
rtibia 11.6519
rfoot -20.6417 -24.963
rtoes 6.4239
lfemur -20.7034 4.81362 -13.3197
ltibia 38.2075
lfoot -17.7226 4.85808
ltoes -6.38495
203
root -35.0751 17.5751 -2.84928 -35.7055 80.6394 -38.1698
lowerback 14.5021 -0.950904 1.80529
upperback 7.27262 -0.615306 2.16863
thorax -0.455651 -0.147332 1.33321
lowerneck -4.67204 3.4912 0.381867
upperneck 10.7156 5.38943 -5.513
head 4.58619 2.44713 -1.64097
rclavicle -2.35063e-014 -3.27995e-015
rhumerus -43.8256 15.5905 -84.7754
rradius 40.9889
rwrist -0.884045
rhand 0.0304349 -18.3233
rfingers 7.12502
rthumb 25.6195 -46.6199
lclavicle -2.35063e-014 -3.27995e-015
lhumerus -46.0104 -0.14858 79.0863
lradius 53.159
lwrist 3.76879
lhand -1.13075 11.7022
lfingers 7.12502
lthumb 24.5069 40.1541
rfemur 5.79659 3.35634 30.7862
rtibia 11.6948
rfoot -20.6441 -24.8824
rtoes 6.42257
lfemur -20.7155 4.76442 -13.3421
ltibia 38.1884
lfoot -17.7059 4.88919
ltoes -6.32944
204
root -35.083 17.5745 -2.85171 -35.6891 80.6566 -38.1464
lowerback 14.5143 -0.942667 1.81349
upperback 7.28004 -0.602384 2.17041
thorax -0.454484 -0.140356 1.32869
lowerneck -4.65305 3.48706 0.408632
upperneck 10.6882 5.38047 -5.5238
head 4.57342 2.44405 -1.65021
rclavicle -3.57812e-015 -9.64106e-015
rhumerus -43.7972 15.5632 -84.7515
rradius 40.9778
rwrist -0.890518
rhand 0.0213911 -18.3309
rfingers 7.12502
rthumb 25.6109 -46.6287
lclavicle -3.57812e-015 -9.64106e-015
lhumerus -46.0035 -0.16588 79.1552
lradius 53.1478
lwrist 3.78344
lhand -1.11792 11.7081
lfingers 7.12502
lthumb 24.5192 40.1584
rfemur 5.75057 3.29872 30.7508
rtibia 11.7416
rfoot -20.6471 -24.815
rtoes 6.41171
lfemur -20.7322 4.7117 -13.3609
ltibia 38.1777
lfoot -17.6895 4.91712
ltoes -6.282
205
root -35.0907 17.5736 -2.85413 -35.6976 80.6776 -38.1479
lowerback 14.5333 -0.936748 1.82457
upperback 7.28437 -0.591887 2.17219
thorax -0.460164 -0.134572 1.32298
lowerneck -4.62482 3.48121 0.436446
upperneck 10.6577 5.36868 -5.53317
head 4.55754 2.43992 -1.65943
rclavicle 1.3418e-015 -2.18663e-015
rhumerus -43.7764 15.5409 -84.7343
rradius 40.9722
rwrist -0.903632
rhand 0.0130519 -18.3471
rfingers 7.12502
rthumb 25.6029 -46.6461
lclavicle 1.3418e-015 -2.18663e-015
lhumerus -46.0075 -0.195974 79.2304
lradius 53.1318
lwrist 3.79539
lhand -1.09301 11.6938
lfingers 7.12502
lthumb 24.5431 40.1408
rfemur 5.7027 3.24373 30.7179
rtibia 11.7941
rfoot -20.6531 -24.7564
rtoes 6.40157
lfemur -20.7536 4.65941 -13.3796
ltibia 38.1752
lfoot -17.6735 4.94304
ltoes -6.24703
206
root -35.0981 17.5726 -2.85643 -35.7648 80.7019 -38.2099
lowerback 14.5554 -0.933453 1.84152
upperback 7.28775 -0.583828 2.17642
thorax -0.468507 -0.129877 1.31692
lowerneck -4.59398 3.47399 0.463689
upperneck 10.626 5.35489 -5.54155
head 4.54056 2.43488 -1.66835
rclavicle -1.77912e-014 -4.57205e-015
rhumerus -43.7579 15.5208 -84.7207
rradius 40.9688
rwrist -0.924174
rhand 0.000855995 -18.3635
rfingers 7.12502
rthumb 25.5912 -46.6641
lclavicle -1.77912e-014 -4.57205e-015
lhumerus -46.017 -0.239817 79.314
lradius 53.1123
lwrist 3.80559
lhand -1.05975 11.6822
lfingers 7.12502
lthumb 24.5749 40.1249
rfemur 5.65217 3.18649 30.6928
rtibia 11.8507
rfoot -20.6621 -24.7043
rtoes 6.3875
lfemur -20.7818 4.60445 -13.3919
ltibia 38.1816
lfoot -17.6569 4.96462
ltoes -6.2229
207
root -35.1051 17.5714 -2.85862 -35.8853 80.7303 -38.3268
lowerback 14.58 -0.932895 1.86396
upperback 7.29092 -0.57842 2.18231
thorax -0.478405 -0.12636 1.30992
lowerneck -4.55929 3.46515 0.492994
upperneck 10.5897 5.33855 -5.55132
head 4.52118 2.42874 -1.67829
rclavicle 2.55935e-014 3.18055e-015
rhumerus -43.7438 15.5035 -84.7112
rradius 40.9715
rwrist -0.947947
rhand -0.0175077 -18.3767
rfingers 7.12502
rthumb 25.5736 -46.6799
lclavicle 2.55935e-014 3.18055e-015
lhumerus -46.0307 -0.294128 79.403
lradius 53.0901
lwrist 3.81455
lhand -1.01418 11.6735
lfingers 7.12502
lthumb 24.6186 40.1103
rfemur 5.60107 3.12724 30.6737
rtibia 11.9088
rfoot -20.6773 -24.6564
rtoes 6.38754
lfemur -20.8168 4.55008 -13.4008
ltibia 38.1965
lfoot -17.641 4.98393
ltoes -6.21662
208
root -35.1116 17.57 -2.86074 -36.0588 80.7581 -38.4991
lowerback 14.6062 -0.933093 1.89371
upperback 7.29497 -0.572788 2.19134
thorax -0.48825 -0.12253 1.30206
lowerneck -4.52845 3.45339 0.523563
upperneck 10.553 5.3184 -5.56297
head 4.50243 2.42062 -1.68926
rclavicle 1.28713e-014 3.86636e-014
rhumerus -43.7314 15.486 -84.7023
rradius 40.9798
rwrist -0.972344
rhand -0.0424583 -18.3859
rfingers 7.12502
rthumb 25.5497 -46.6925
lclavicle 1.28713e-014 3.86636e-014
lhumerus -46.045 -0.356087 79.4988
lradius 53.0634
lwrist 3.82093
lhand -0.965354 11.6597
lfingers 7.12502
lthumb 24.6654 40.09
rfemur 5.54995 3.06009 30.6618
rtibia 11.9651
rfoot -20.696 -24.6044
rtoes 6.39203
lfemur -20.8577 4.49851 -13.4026
ltibia 38.2193
lfoot -17.6271 5.00034
ltoes -6.21708
